<mxfile host="app.diagrams.net" modified="2022-09-14T00:20:25.607Z" agent="5.0 (Windows NT 10.0; Win64; x64) AppleWebKit/537.36 (KHTML, like Gecko) Chrome/105.0.0.0 Safari/537.36 Edg/105.0.1343.33" etag="eNNg9KOHvOFl_rBXrR3L" version="20.3.0" type="github">
  <diagram id="URzWJDg6SxiPUfwDZvZk" name="Página-1">
    <mxGraphModel dx="794" dy="1552" grid="1" gridSize="10" guides="1" tooltips="1" connect="1" arrows="1" fold="1" page="1" pageScale="1" pageWidth="827" pageHeight="1169" math="0" shadow="0">
      <root>
        <mxCell id="0" />
        <mxCell id="1" parent="0" />
        <mxCell id="fkOaNx2dsbwgEz1udxoN-5" style="edgeStyle=orthogonalEdgeStyle;rounded=0;orthogonalLoop=1;jettySize=auto;html=1;entryX=0.5;entryY=0;entryDx=0;entryDy=0;" edge="1" parent="1" source="fkOaNx2dsbwgEz1udxoN-1" target="fkOaNx2dsbwgEz1udxoN-2">
          <mxGeometry relative="1" as="geometry" />
        </mxCell>
        <mxCell id="fkOaNx2dsbwgEz1udxoN-6" style="edgeStyle=orthogonalEdgeStyle;rounded=0;orthogonalLoop=1;jettySize=auto;html=1;entryX=0.5;entryY=0;entryDx=0;entryDy=0;" edge="1" parent="1" source="fkOaNx2dsbwgEz1udxoN-1" target="fkOaNx2dsbwgEz1udxoN-3">
          <mxGeometry relative="1" as="geometry" />
        </mxCell>
        <mxCell id="fkOaNx2dsbwgEz1udxoN-7" style="edgeStyle=orthogonalEdgeStyle;rounded=0;orthogonalLoop=1;jettySize=auto;html=1;" edge="1" parent="1" source="fkOaNx2dsbwgEz1udxoN-1" target="fkOaNx2dsbwgEz1udxoN-4">
          <mxGeometry relative="1" as="geometry" />
        </mxCell>
        <mxCell id="fkOaNx2dsbwgEz1udxoN-9" style="edgeStyle=orthogonalEdgeStyle;rounded=0;orthogonalLoop=1;jettySize=auto;html=1;entryX=0.5;entryY=0;entryDx=0;entryDy=0;" edge="1" parent="1" source="fkOaNx2dsbwgEz1udxoN-1" target="fkOaNx2dsbwgEz1udxoN-8">
          <mxGeometry relative="1" as="geometry" />
        </mxCell>
        <mxCell id="fkOaNx2dsbwgEz1udxoN-1" value="Home&amp;nbsp;" style="sketch=0;aspect=fixed;html=1;points=[];align=center;image;fontSize=12;image=img/lib/mscae/CustomDomain.svg;" vertex="1" parent="1">
          <mxGeometry x="364" y="80" width="95.24" height="80" as="geometry" />
        </mxCell>
        <mxCell id="fkOaNx2dsbwgEz1udxoN-2" value="Consultar menú" style="rounded=1;whiteSpace=wrap;html=1;" vertex="1" parent="1">
          <mxGeometry x="200" y="280" width="120" height="60" as="geometry" />
        </mxCell>
        <mxCell id="fkOaNx2dsbwgEz1udxoN-3" value="Consultar menú promociones" style="rounded=1;whiteSpace=wrap;html=1;" vertex="1" parent="1">
          <mxGeometry x="339.24" y="280" width="120" height="60" as="geometry" />
        </mxCell>
        <mxCell id="fkOaNx2dsbwgEz1udxoN-4" value="Consultar sedes" style="rounded=1;whiteSpace=wrap;html=1;" vertex="1" parent="1">
          <mxGeometry x="480" y="280" width="120" height="60" as="geometry" />
        </mxCell>
        <mxCell id="fkOaNx2dsbwgEz1udxoN-19" style="edgeStyle=orthogonalEdgeStyle;rounded=0;orthogonalLoop=1;jettySize=auto;html=1;" edge="1" parent="1" source="fkOaNx2dsbwgEz1udxoN-8" target="fkOaNx2dsbwgEz1udxoN-11">
          <mxGeometry relative="1" as="geometry">
            <Array as="points">
              <mxPoint x="670" y="380" />
              <mxPoint x="330" y="380" />
            </Array>
          </mxGeometry>
        </mxCell>
        <mxCell id="fkOaNx2dsbwgEz1udxoN-20" style="edgeStyle=orthogonalEdgeStyle;rounded=0;orthogonalLoop=1;jettySize=auto;html=1;entryX=0.5;entryY=0;entryDx=0;entryDy=0;entryPerimeter=0;" edge="1" parent="1" source="fkOaNx2dsbwgEz1udxoN-8" target="fkOaNx2dsbwgEz1udxoN-12">
          <mxGeometry relative="1" as="geometry" />
        </mxCell>
        <mxCell id="fkOaNx2dsbwgEz1udxoN-21" style="edgeStyle=orthogonalEdgeStyle;rounded=0;orthogonalLoop=1;jettySize=auto;html=1;entryX=0.5;entryY=0;entryDx=0;entryDy=0;entryPerimeter=0;" edge="1" parent="1" source="fkOaNx2dsbwgEz1udxoN-8" target="fkOaNx2dsbwgEz1udxoN-13">
          <mxGeometry relative="1" as="geometry">
            <Array as="points">
              <mxPoint x="670" y="380" />
              <mxPoint x="785" y="380" />
            </Array>
          </mxGeometry>
        </mxCell>
        <mxCell id="fkOaNx2dsbwgEz1udxoN-8" value="Login" style="rounded=1;whiteSpace=wrap;html=1;" vertex="1" parent="1">
          <mxGeometry x="610" y="280" width="120" height="60" as="geometry" />
        </mxCell>
        <mxCell id="fkOaNx2dsbwgEz1udxoN-24" style="edgeStyle=orthogonalEdgeStyle;rounded=0;orthogonalLoop=1;jettySize=auto;html=1;entryX=0.5;entryY=0;entryDx=0;entryDy=0;" edge="1" parent="1" source="fkOaNx2dsbwgEz1udxoN-11" target="fkOaNx2dsbwgEz1udxoN-22">
          <mxGeometry relative="1" as="geometry" />
        </mxCell>
        <mxCell id="fkOaNx2dsbwgEz1udxoN-25" style="edgeStyle=orthogonalEdgeStyle;rounded=0;orthogonalLoop=1;jettySize=auto;html=1;" edge="1" parent="1" source="fkOaNx2dsbwgEz1udxoN-11" target="fkOaNx2dsbwgEz1udxoN-23">
          <mxGeometry relative="1" as="geometry" />
        </mxCell>
        <mxCell id="fkOaNx2dsbwgEz1udxoN-11" value="Usuario" style="shape=umlActor;verticalLabelPosition=bottom;verticalAlign=top;html=1;outlineConnect=0;" vertex="1" parent="1">
          <mxGeometry x="314.62" y="440" width="30" height="60" as="geometry" />
        </mxCell>
        <mxCell id="fkOaNx2dsbwgEz1udxoN-32" style="edgeStyle=orthogonalEdgeStyle;rounded=0;orthogonalLoop=1;jettySize=auto;html=1;entryX=0.5;entryY=0;entryDx=0;entryDy=0;" edge="1" parent="1" source="fkOaNx2dsbwgEz1udxoN-12" target="fkOaNx2dsbwgEz1udxoN-31">
          <mxGeometry relative="1" as="geometry" />
        </mxCell>
        <mxCell id="fkOaNx2dsbwgEz1udxoN-12" value="Administrador" style="shape=umlActor;verticalLabelPosition=bottom;verticalAlign=top;html=1;outlineConnect=0;" vertex="1" parent="1">
          <mxGeometry x="600" y="440" width="30" height="60" as="geometry" />
        </mxCell>
        <mxCell id="fkOaNx2dsbwgEz1udxoN-13" value="Superadministrador" style="shape=umlActor;verticalLabelPosition=bottom;verticalAlign=top;html=1;outlineConnect=0;" vertex="1" parent="1">
          <mxGeometry x="770" y="440" width="30" height="60" as="geometry" />
        </mxCell>
        <mxCell id="fkOaNx2dsbwgEz1udxoN-27" style="edgeStyle=orthogonalEdgeStyle;rounded=0;orthogonalLoop=1;jettySize=auto;html=1;" edge="1" parent="1" source="fkOaNx2dsbwgEz1udxoN-22" target="fkOaNx2dsbwgEz1udxoN-26">
          <mxGeometry relative="1" as="geometry" />
        </mxCell>
        <mxCell id="fkOaNx2dsbwgEz1udxoN-22" value="Consultar menú" style="rounded=1;whiteSpace=wrap;html=1;" vertex="1" parent="1">
          <mxGeometry x="200" y="720" width="120" height="60" as="geometry" />
        </mxCell>
        <mxCell id="fkOaNx2dsbwgEz1udxoN-28" style="edgeStyle=orthogonalEdgeStyle;rounded=0;orthogonalLoop=1;jettySize=auto;html=1;" edge="1" parent="1" source="fkOaNx2dsbwgEz1udxoN-23" target="fkOaNx2dsbwgEz1udxoN-26">
          <mxGeometry relative="1" as="geometry" />
        </mxCell>
        <mxCell id="fkOaNx2dsbwgEz1udxoN-23" value="Consultar menú promociones" style="rounded=1;whiteSpace=wrap;html=1;" vertex="1" parent="1">
          <mxGeometry x="339.24" y="720" width="120" height="60" as="geometry" />
        </mxCell>
        <mxCell id="fkOaNx2dsbwgEz1udxoN-26" value="Hacer pedido" style="rounded=1;whiteSpace=wrap;html=1;" vertex="1" parent="1">
          <mxGeometry x="279.62" y="815" width="120" height="60" as="geometry" />
        </mxCell>
        <mxCell id="fkOaNx2dsbwgEz1udxoN-33" style="edgeStyle=orthogonalEdgeStyle;rounded=0;orthogonalLoop=1;jettySize=auto;html=1;entryX=0.5;entryY=0;entryDx=0;entryDy=0;" edge="1" parent="1" source="fkOaNx2dsbwgEz1udxoN-31" target="fkOaNx2dsbwgEz1udxoN-22">
          <mxGeometry relative="1" as="geometry" />
        </mxCell>
        <mxCell id="fkOaNx2dsbwgEz1udxoN-34" style="edgeStyle=orthogonalEdgeStyle;rounded=0;orthogonalLoop=1;jettySize=auto;html=1;" edge="1" parent="1" source="fkOaNx2dsbwgEz1udxoN-31" target="fkOaNx2dsbwgEz1udxoN-23">
          <mxGeometry relative="1" as="geometry" />
        </mxCell>
        <mxCell id="fkOaNx2dsbwgEz1udxoN-38" style="edgeStyle=orthogonalEdgeStyle;rounded=0;orthogonalLoop=1;jettySize=auto;html=1;entryX=0.869;entryY=-0.035;entryDx=0;entryDy=0;entryPerimeter=0;" edge="1" parent="1" source="fkOaNx2dsbwgEz1udxoN-31" target="fkOaNx2dsbwgEz1udxoN-37">
          <mxGeometry relative="1" as="geometry" />
        </mxCell>
        <mxCell id="fkOaNx2dsbwgEz1udxoN-31" value="Gestión de menús" style="rounded=1;whiteSpace=wrap;html=1;" vertex="1" parent="1">
          <mxGeometry x="555" y="600" width="120" height="60" as="geometry" />
        </mxCell>
        <mxCell id="fkOaNx2dsbwgEz1udxoN-35" value="Gestión de usuarios" style="rounded=1;whiteSpace=wrap;html=1;" vertex="1" parent="1">
          <mxGeometry x="700" y="600" width="120" height="60" as="geometry" />
        </mxCell>
        <mxCell id="fkOaNx2dsbwgEz1udxoN-37" value="" style="rounded=0;whiteSpace=wrap;html=1;fillColor=none;" vertex="1" parent="1">
          <mxGeometry x="190" y="710" width="490" height="80" as="geometry" />
        </mxCell>
        <mxCell id="fkOaNx2dsbwgEz1udxoN-36" value="Crear/ modificar" style="rounded=1;whiteSpace=wrap;html=1;" vertex="1" parent="1">
          <mxGeometry x="555" y="720" width="120" height="60" as="geometry" />
        </mxCell>
      </root>
    </mxGraphModel>
  </diagram>
</mxfile>
